<svg xmlns="http://www.w3.org/2000/svg" viewBox="0 0 256.89 88.92"><defs><style>.cls-1{fill:#3ddb91;}.cls-2{fill:#fdd223;}</style></defs><title>QuarterSprout_color</title><g id="Layer_2" data-name="Layer 2"><g id="Layer_1-2" data-name="Layer 1"><path class="cls-1" d="M6.38,67.54a6.91,6.91,0,0,0,2.07,5.2,6.39,6.39,0,0,0,9.25.06,7.68,7.68,0,0,0,0-10.49,6.55,6.55,0,0,0-4.63-2,6.45,6.45,0,0,0-4.61,2,6.94,6.94,0,0,0-2.06,5.21m18.43,6,2.38,1.62q1.29,1,1.29,1.86a5,5,0,0,1-1.08,2.47c-.72,1.06-1.45,1.59-2.2,1.59a4.49,4.49,0,0,1-2.09-1c-.12-.07-.46-.3-1-.68s-1-.67-1.3-.87a12,12,0,0,1-7.53,2.6,12.59,12.59,0,0,1-9.43-4A13.1,13.1,0,0,1,0,67.71a14.51,14.51,0,0,1,1.08-5.6A12.92,12.92,0,0,1,4,57.73,13.4,13.4,0,0,1,8.11,55a12.16,12.16,0,0,1,4.83-1,12.81,12.81,0,0,1,9.27,3.86,13.11,13.11,0,0,1,3.93,9.77,14.32,14.32,0,0,1-1.33,6"/><path class="cls-1" d="M37.82,80.62a7.68,7.68,0,0,1-6-2.75,9.9,9.9,0,0,1-2.39-6.73V64.83a9.72,9.72,0,0,1,.05-1.26,3.45,3.45,0,0,1,.3-.94c.34-.65,1.28-1,2.82-1s2.67.46,2.95,1.37a5.49,5.49,0,0,1,.22,1.84v6.31a2.9,2.9,0,0,0,3.12,3.13,3.15,3.15,0,0,0,2.31-.86A3,3,0,0,0,42,71.18V64.79a12.24,12.24,0,0,1,.05-1.24,2.79,2.79,0,0,1,.35-.95c.31-.63,1.23-.94,2.77-.94s2.44.32,2.78,1a3.42,3.42,0,0,1,.31,1,12.1,12.1,0,0,1,.05,1.24V77.59a11.71,11.71,0,0,1-.05,1.21,2.46,2.46,0,0,1-.35.92c-.36.63-1.28.94-2.77.94s-2.37-.29-2.71-.87a2.83,2.83,0,0,1-.36-1.47,3.53,3.53,0,0,1-.65.72,9.12,9.12,0,0,1-1,.79,4.82,4.82,0,0,1-2.67.79"/><path class="cls-1" d="M57,71.21a3,3,0,0,0,.94,2.15,3.05,3.05,0,0,0,2.27,1,2.87,2.87,0,0,0,2.22-1,3.11,3.11,0,0,0,.88-2.15A3.36,3.36,0,0,0,62.47,69a2.85,2.85,0,0,0-2.28-1,2.92,2.92,0,0,0-2.3,1,3.3,3.3,0,0,0-.89,2.2m6.57-7.5c.14-1.34,1.09-2,2.84-2a7.68,7.68,0,0,1,2.1.22,1.51,1.51,0,0,1,.95.76,3.27,3.27,0,0,1,.33.95,12.33,12.33,0,0,1,0,1.25V77.49a12.24,12.24,0,0,1,0,1.24,3.42,3.42,0,0,1-.31,1c-.34.62-1.16.93-2.47.93a4.9,4.9,0,0,1-2.63-.48,1.94,1.94,0,0,1-.78-1.43c-.89,1.28-2.37,1.91-4.45,1.91a7.89,7.89,0,0,1-5.79-2.84,9.49,9.49,0,0,1,0-13.22,8,8,0,0,1,5.89-2.83,5.59,5.59,0,0,1,2.24.43,5.24,5.24,0,0,1,1.41.81,5.93,5.93,0,0,1,.65.74"/><path class="cls-1" d="M85.63,61.91a2.39,2.39,0,0,1,1.14.74,2.56,2.56,0,0,1,.45,1.68,5.64,5.64,0,0,1-.69,2.52,2.15,2.15,0,0,1-2,1.37,2.76,2.76,0,0,1-1.25-.29,3.59,3.59,0,0,0-1.56-.29,2.82,2.82,0,0,0-1.82.69A2.06,2.06,0,0,0,79.07,70v7.57A9.35,9.35,0,0,1,79,78.8a2.78,2.78,0,0,1-.34,1c-.36.62-1.3.94-2.81.94a4,4,0,0,1-2.49-.62,2.17,2.17,0,0,1-.65-1.55V64.83a9.35,9.35,0,0,1,.06-1.24,2.89,2.89,0,0,1,.3-.92c.34-.65,1.28-1,2.82-1s2.34.28,2.7.83a2.12,2.12,0,0,1,.4,1.19,4.61,4.61,0,0,1,2-1.58,4.2,4.2,0,0,1,2-.62,7.65,7.65,0,0,1,2.68.4"/><path class="cls-1" d="M100.23,68.08l-2.34-.15v5a2.42,2.42,0,0,0,.31,1.4,1.32,1.32,0,0,0,1.15.44,11,11,0,0,1,1.3,0,2.6,2.6,0,0,1,.95.34c.56.32.83,1.12.83,2.42,0,1.51-.34,2.44-1,2.77a3.16,3.16,0,0,1-1,.31,9.14,9.14,0,0,1-1.21.06,8.45,8.45,0,0,1-5.7-1.7c-1.3-1.13-1.94-3-1.94-5.73V67.93a9.79,9.79,0,0,1-1.48.11,1.66,1.66,0,0,1-1.32-.61,3.25,3.25,0,0,1-.52-2.09,9.14,9.14,0,0,1,.18-2.15,2,2,0,0,1,.5-.95,2.2,2.2,0,0,1,1.45-.47l1.19.14h6.27c1.06-.1,1.86-.14,2.4-.14a9.49,9.49,0,0,1,1.22,0,3,3,0,0,1,1,.34c.62.31.94,1.24.94,2.78s-.33,2.44-1,2.77a3.16,3.16,0,0,1-1,.31,9.52,9.52,0,0,1-1.25.06"/><path class="cls-1" d="M115.38,70c.91,0,1.37-.39,1.37-1.16a1.63,1.63,0,0,0-.63-1.33,2.85,2.85,0,0,0-1.81-.51A3.63,3.63,0,0,0,112,68a2.7,2.7,0,0,0-1.16,2Zm7.6-1.07a4.33,4.33,0,0,1-1.1,3.28,3.42,3.42,0,0,1-2.43,1.07H110.9A2,2,0,0,0,112.1,75a4.68,4.68,0,0,0,2.38.69,9.9,9.9,0,0,0,3.28-.44l.39-.14a3.75,3.75,0,0,1,1.44-.4c.77,0,1.44.54,2,1.63a4,4,0,0,1,.47,1.66c0,2.14-2.56,3.2-7.68,3.2a11.46,11.46,0,0,1-4.74-.92,8,8,0,0,1-3.23-2.43,10.33,10.33,0,0,1-2.27-6.52A9.43,9.43,0,0,1,107.07,64a10.37,10.37,0,0,1,7.33-2.72c3.34,0,5.8,1.17,7.36,3.53A7.29,7.29,0,0,1,123,68.92"/><path class="cls-1" d="M138.24,61.91a2.41,2.41,0,0,1,1.13.74,2.56,2.56,0,0,1,.45,1.68,5.75,5.75,0,0,1-.68,2.52,2.16,2.16,0,0,1-2,1.37,2.72,2.72,0,0,1-1.24-.29,3.67,3.67,0,0,0-1.57-.29,2.84,2.84,0,0,0-1.82.69,2.09,2.09,0,0,0-.85,1.66v7.57a9.74,9.74,0,0,1,0,1.24,3,3,0,0,1-.34,1c-.36.62-1.3.94-2.82.94a3.94,3.94,0,0,1-2.48-.62,2.13,2.13,0,0,1-.65-1.55V64.83a12.1,12.1,0,0,1,0-1.24,2.94,2.94,0,0,1,.31-.92c.33-.65,1.27-1,2.81-1s2.34.28,2.71.83a2.11,2.11,0,0,1,.39,1.19c.12-.16.3-.37.52-.61a7,7,0,0,1,1.46-1,4.23,4.23,0,0,1,2-.62,7.76,7.76,0,0,1,2.69.4"/><path class="cls-1" d="M142.2,77a3.49,3.49,0,0,1-.94-2.07c0-.61.52-1.43,1.55-2.44a2.78,2.78,0,0,1,1.92-.86c.67,0,1.61.6,2.81,1.8A5.22,5.22,0,0,0,149,74.58a3.34,3.34,0,0,0,1.73.56c2.24,0,3.35-.91,3.35-2.74a1.59,1.59,0,0,0-.92-1.38,6.55,6.55,0,0,0-2.29-.82,18.08,18.08,0,0,1-2.95-.81,19.47,19.47,0,0,1-3-1.31,6,6,0,0,1-2.29-2.4,8,8,0,0,1-.92-4,7.62,7.62,0,0,1,2.36-5.54,8.73,8.73,0,0,1,6.44-2.36,13.27,13.27,0,0,1,3.95.56A7.64,7.64,0,0,1,157,55.53l.9.68A2.86,2.86,0,0,1,159,58a4,4,0,0,1-.87,2c-.82,1.21-1.66,1.81-2.52,1.81A3.66,3.66,0,0,1,153.7,61a3,3,0,0,1-.41-.35,5,5,0,0,0-.56-.47,3.56,3.56,0,0,0-1.93-.47,3.21,3.21,0,0,0-2,.56,1.81,1.81,0,0,0-.77,1.55,1.84,1.84,0,0,0,.92,1.6,5.55,5.55,0,0,0,2.29.83,26.27,26.27,0,0,1,3,.67,17.82,17.82,0,0,1,3,1.1,5.21,5.21,0,0,1,2.29,2.25,7.88,7.88,0,0,1,.92,4,8.71,8.71,0,0,1-.94,4.13,7.1,7.1,0,0,1-2.45,2.76,11.19,11.19,0,0,1-6.24,1.91,11.94,11.94,0,0,1-3.2-.42,10.23,10.23,0,0,1-5.12-3.26Z"/><path class="cls-1" d="M170,68.87a3.23,3.23,0,0,0-.83,2.13,3.14,3.14,0,0,0,.85,2.11,2.8,2.8,0,0,0,2.17,1,3,3,0,0,0,2.23-.94A3,3,0,0,0,175.3,71a3.11,3.11,0,0,0-.87-2.15,2.87,2.87,0,0,0-2.25-1,2.79,2.79,0,0,0-2.22,1m-7.13,17v-21a9.38,9.38,0,0,1,0-1.23,3,3,0,0,1,.31-.9c.33-.65,1.14-1,2.41-1a4.77,4.77,0,0,1,2.58.49,2,2,0,0,1,.77,1.43,5,5,0,0,1,4.31-1.88,7.67,7.67,0,0,1,5.57,2.78,9.22,9.22,0,0,1,0,12.9,7.6,7.6,0,0,1-5.57,2.78A5.17,5.17,0,0,1,169,78.53v7.29a11.51,11.51,0,0,1-.05,1.22,3.13,3.13,0,0,1-.33.92,1.51,1.51,0,0,1-.92.74,5.86,5.86,0,0,1-1.76.22,6.13,6.13,0,0,1-1.79-.22,1.57,1.57,0,0,1-.94-.72,2.89,2.89,0,0,1-.32-.9,9.57,9.57,0,0,1,0-1.23"/><path class="cls-1" d="M196.72,61.91a2.41,2.41,0,0,1,1.13.74,2.56,2.56,0,0,1,.45,1.68,5.75,5.75,0,0,1-.68,2.52,2.16,2.16,0,0,1-2,1.37,2.72,2.72,0,0,1-1.24-.29,3.67,3.67,0,0,0-1.57-.29,2.84,2.84,0,0,0-1.82.69,2.09,2.09,0,0,0-.85,1.66v7.57a9.74,9.74,0,0,1-.05,1.24,3,3,0,0,1-.34,1c-.36.62-1.3.94-2.81.94a4,4,0,0,1-2.49-.62,2.13,2.13,0,0,1-.65-1.55V64.83a12.1,12.1,0,0,1,.05-1.24,2.94,2.94,0,0,1,.31-.92c.34-.65,1.27-1,2.81-1s2.34.28,2.71.83a2.11,2.11,0,0,1,.39,1.19c.12-.16.3-.37.52-.61a6.82,6.82,0,0,1,1.47-1,4.17,4.17,0,0,1,2-.62,7.76,7.76,0,0,1,2.69.4"/><path class="cls-1" d="M206.2,73.79a3.82,3.82,0,0,0,2.34.88,3.91,3.91,0,0,0,2.38-.9,3.62,3.62,0,0,0,.07-5.3,3.89,3.89,0,0,0-2.41-.86,3.79,3.79,0,0,0-2.42.9A3.21,3.21,0,0,0,205,71.16a3.1,3.1,0,0,0,1.16,2.63m-4.51-9.72a9.91,9.91,0,0,1,6.92-2.81,9.8,9.8,0,0,1,6.89,2.79,10,10,0,0,1,1.44,12.45,9.73,9.73,0,0,1-3.77,3.42,10.2,10.2,0,0,1-4.59,1.1A9.84,9.84,0,0,1,204,79.85a10.24,10.24,0,0,1-3.76-3.46,9,9,0,0,1-1.54-5.18,9.33,9.33,0,0,1,3-7.14"/><path class="cls-1" d="M229.27,80.62a7.66,7.66,0,0,1-6-2.75,9.91,9.91,0,0,1-2.4-6.73V64.83a9.72,9.72,0,0,1,0-1.26,3.52,3.52,0,0,1,.31-.94c.33-.65,1.27-1,2.81-1s2.67.46,3,1.37a5.82,5.82,0,0,1,.21,1.84v6.31a2.9,2.9,0,0,0,3.12,3.13,3.15,3.15,0,0,0,2.31-.86,3,3,0,0,0,.88-2.27V64.79a9.45,9.45,0,0,1,.06-1.24,2.74,2.74,0,0,1,.34-.95c.31-.63,1.24-.94,2.78-.94s2.43.32,2.77,1a3.42,3.42,0,0,1,.31,1,9.74,9.74,0,0,1,.05,1.24V77.59a9.41,9.41,0,0,1-.05,1.21,2.61,2.61,0,0,1-.34.92c-.36.63-1.29.94-2.78.94s-2.37-.29-2.7-.87a2.74,2.74,0,0,1-.36-1.47,4.29,4.29,0,0,1-.65.72,10.29,10.29,0,0,1-1,.79,4.8,4.8,0,0,1-2.67.79"/><path class="cls-1" d="M253.72,68.08l-2.34-.15v5a2.51,2.51,0,0,0,.3,1.4,1.34,1.34,0,0,0,1.16.44,10.86,10.86,0,0,1,1.29,0,2.71,2.71,0,0,1,1,.34c.55.32.83,1.12.83,2.42,0,1.51-.34,2.44-1,2.77a3.12,3.12,0,0,1-1,.31,8.87,8.87,0,0,1-1.2.06,8.45,8.45,0,0,1-5.7-1.7q-2-1.69-2-5.73V67.93a9.69,9.69,0,0,1-1.48.11,1.64,1.64,0,0,1-1.31-.61,3.25,3.25,0,0,1-.52-2.09,9.27,9.27,0,0,1,.17-2.15,2,2,0,0,1,.51-.95,2.17,2.17,0,0,1,1.44-.47l1.19.14V58.2a9.07,9.07,0,0,1,.06-1.23,2.19,2.19,0,0,1,.34-.86c.31-.61,1.24-.91,2.78-.91s2.6.45,2.92,1.34a6.74,6.74,0,0,1,.18,1.84v3.53c1.05-.1,1.85-.14,2.39-.14a9.76,9.76,0,0,1,1.23,0,2.89,2.89,0,0,1,.95.34c.63.31.94,1.24.94,2.78s-.32,2.44-1,2.77a3.12,3.12,0,0,1-1,.31,9.35,9.35,0,0,1-1.24.06"/><path class="cls-2" d="M80,24.55a1.8,1.8,0,0,1-1.68-1.18,17.45,17.45,0,1,1,33.87-5.92,17.76,17.76,0,0,1-.14,2.19,1.8,1.8,0,0,1-2,1.55,1.78,1.78,0,0,1-1.55-2,14.68,14.68,0,0,0,.11-1.75,13.88,13.88,0,1,0-26.94,4.7,1.8,1.8,0,0,1-1.07,2.29,1.87,1.87,0,0,1-.61.11"/><path class="cls-1" d="M94.76,64.09c-1,0-2.75-.79-2.75-1.78,0-18.16,16.33-30.15,23.77-33.11a1.78,1.78,0,1,1,1.32,3.31c-4.34,1.73-19.38,11.85-19.38,29.8,0,1-2,1.78-3,1.78"/><path class="cls-1" d="M107,51.07c-1,0-2.08,0-3.16-.12a1.78,1.78,0,0,1,.25-3.56C112,47.94,118,46.32,122,42.58c5.81-5.41,6.5-14.53,6.58-19.79-7.74.53-19.8,2.87-24.41,7.64-4,4.14-4.16,9.69-2,12.46a1.79,1.79,0,0,1-2.82,2.19C96.2,41,96.19,33.54,101.59,28c6.45-6.67,22.92-8.63,28.71-8.82a1.67,1.67,0,0,1,1.3.5,1.77,1.77,0,0,1,.55,1.28c0,5.11,0,17.09-7.72,24.28-4.19,3.91-10,5.88-17.42,5.88"/><path class="cls-1" d="M95.94,55.5a1.79,1.79,0,0,1-1.67-1.15c-3-8-9-12.8-12.93-16l-.4-.32a1.78,1.78,0,0,1,2.23-2.78l.4.31c4.24,3.41,10.66,8.55,14,17.49a1.79,1.79,0,0,1-1,2.3,1.74,1.74,0,0,1-.63.11"/><path class="cls-1" d="M88.3,52.51a12.85,12.85,0,0,1-9.16-3.91c-4.61-4.69-7-12.26-7-21.89a1.79,1.79,0,0,1,1.79-1.79c5.31,0,19.88,4.54,21.18,14.75a1.78,1.78,0,1,1-3.54.45c-.86-6.71-10.65-10.62-15.82-11.46.29,7.74,2.34,13.74,6,17.44a9,9,0,0,0,11.16,1.55,1.78,1.78,0,1,1,1.87,3,12.2,12.2,0,0,1-6.41,1.82"/><path class="cls-2" d="M100.15,20.85A4.39,4.39,0,0,1,99,24a5.43,5.43,0,0,1-2.77,1.57v1.63a3.28,3.28,0,0,1-.16,1.24.87.87,0,0,1-.48.48,2.27,2.27,0,0,1-.85.13,2.2,2.2,0,0,1-.85-.13.77.77,0,0,1-.45-.45,3.6,3.6,0,0,1-.17-1.3V25.62a5.8,5.8,0,0,1-1.88-.76,5.15,5.15,0,0,1-1.17-.94l-.33-.43a2.1,2.1,0,0,1-.53-1.19c0-.34.29-.79.86-1.35a1.56,1.56,0,0,1,1.08-.48q.57,0,1.59,1a2.26,2.26,0,0,0,1.77,1c1.25,0,1.88-.51,1.88-1.55,0-.37-.24-.66-.71-.86a11.15,11.15,0,0,0-1.73-.54,14.91,14.91,0,0,1-2-.65,4,4,0,0,1-1.72-1.39A4.23,4.23,0,0,1,89.65,15a4.3,4.3,0,0,1,1-2.74,4.41,4.41,0,0,1,2.67-1.57V9.22A3.74,3.74,0,0,1,93.43,8c.17-.4.62-.6,1.34-.6a1.53,1.53,0,0,1,1,.29,1,1,0,0,1,.39.62,6,6,0,0,1,0,1v1.42a6,6,0,0,1,1.3.43,5.3,5.3,0,0,1,.81.46l.22.2.11.08q.63.59.63,1a2.89,2.89,0,0,1-.6,1.27,1.63,1.63,0,0,1-1.3.89,1.28,1.28,0,0,1-.77-.23,6.25,6.25,0,0,1-.5-.38l-.33-.26a2,2,0,0,0-1.09-.27,1.8,1.8,0,0,0-1.09.31,1,1,0,0,0-.43.88,1,1,0,0,0,.52.9,3,3,0,0,0,1.28.45,13,13,0,0,1,1.67.38,13.11,13.11,0,0,1,1.68.62,3,3,0,0,1,1.28,1.26,4.5,4.5,0,0,1,.52,2.24"/></g></g></svg>